<svg xmlns="http://www.w3.org/2000/svg" aria-hidden="true" class="iconify iconify--noto" preserveAspectRatio="xMidYMid" viewBox="0 0 118.4 118.4"><path fill="#e07d15" d="M49.283 19.825c-.395.911-46.317 33.179-46.317 33.179l8.198 10.537s40.467 26.671 48.403 26.286c7.935-.385 32.663-19.261 32.663-19.261l20.424-20.294s-6.892-5.202-7.672-5.729c-.78-.526-41.519-25.365-41.519-25.365l-7.156-1.822z"/><g fill="#ac5811"><path d="M14.156 61.145s21.51-14.94 30.66-21.64c9.11-6.67 24.2-17.11 24.2-17.11l4.45 1.92s-15.17 10.59-26.67 19.17-28.64 20.85-28.64 20.85zM33.206 74.965c1.07-.15 23.14-16.24 33.71-24.06s20.99-15.32 20.99-15.32l3.97 2.33s-21.74 16.52-29.09 21.88-25.59 19-25.59 19zM46.816 82.585c2.45-.46 21.31-14.1 30.04-21s23.43-18.27 23.43-18.27l4.33 2.27s-18.72 14.78-27.76 21.98-29.73 21.15-29.73 21.15z"/><path d="m18.686 47.025-3.99 2.99s9.42 7.76 14.08 11.09 23.4 15.08 27.61 17.3 13.53 7.43 13.53 7.43l4.88-3.49s-22.95-12.02-28.75-15.85c-6.54-4.32-16.97-10.89-19.49-12.92-4.65-3.78-7.87-6.55-7.87-6.55zM40.616 30.315l-4.44 3.1s4.77 4.99 11.86 9.09 25.62 15.75 30.83 18.52 12.42 7.87 12.42 7.87l3.89-3.98s-21.63-12.09-29.17-16.86-14.53-9.53-17.74-11.42c-3.22-1.88-7.65-6.32-7.65-6.32zM51.686 22.855l-3.72 3.38s8.65 6.43 15.19 10.09 20.4 11.75 26.17 15.41 15.41 10.09 15.41 10.09l3.44-3.44s-19.68-12.12-24.06-14.75c-4.99-2.99-17.37-10.46-21.7-13.01-8.3-4.88-10.73-7.77-10.73-7.77zM28.286 37.425l-3.99 2.99s9.42 7.76 14.08 11.09 23.4 15.08 27.61 17.3 13.53 7.43 13.53 7.43l4.88-3.49s-22.95-12.02-28.75-15.85c-6.54-4.32-16.97-10.89-19.49-12.92-4.65-3.78-7.87-6.55-7.87-6.55z"/><path d="M23.436 67.545s21.51-14.94 30.66-21.64c9.11-6.67 24.2-17.11 24.2-17.11l4.45 1.92s-15.17 10.59-26.67 19.17-28.64 20.85-28.64 20.85z"/><path d="m59.686 15.175-3.72 3.38s8.65 6.43 15.19 10.09 20.4 11.75 26.17 15.41 15.41 10.09 15.41 10.09l3.44-3.44s-19.68-12.12-24.06-14.75c-4.99-2.99-17.37-10.46-21.7-13.01-8.3-4.88-10.73-7.77-10.73-7.77z"/><path d="M4.556 54.105s21.51-14.94 30.66-21.64c9.11-6.67 24.2-17.11 24.2-17.11l4.45 1.92s-15.17 10.59-26.67 19.17-28.64 20.85-28.64 20.85z"/></g><path fill="#cf7120" d="m110.731 53.026-50.39 39.09.508 11.009s1.215 1.175 3.9-.35c1.93-.99 11.812-8.669 16.852-12.859 5.03-4.19 21.15-17.25 24.93-20.46 3.78-3.22 7.502-6.27 9.83-9.325 2.123-2.786 2.268-4.119 1.755-9.185-.367-3.615-2.745-3.54-2.745-3.54z"/><path fill="#f5b03e" d="M115.241 46.734c-2.04-1.319-17.3-10.571-25.78-15.43-8.48-4.86-21.25-13.784-26.57-15.301-5.102-2.971-9.2.605-10.93 1.517-1.74.913-14.39 9.65-22.89 15.301-8.69 5.772-23.19 14.696-25.14 16.72-1.94 2.022-3.58 4.967-3.68 7.09s-.5 3.814.11 5.767c.67 2.162 1.74 3.441 4.7 5.573 2.96 2.133 21.87 14.181 26.87 17.533 5.01 3.342 23.42 15.61 26.16 16.918 2.34 1.121 4.59 1.121 4.59 1.121s-.78-6.849-.3-8.039 17.41-13.487 27.2-21.549c8.93-7.358 23.58-17.483 26.44-20.924 2.86-3.45 1.26-4.978-.78-6.297zm-8.09 5.91c-1.34 1.042-7.86 6.278-15.63 11.98-7.77 5.701-25.6 18.632-28.67 20.636-3.07 1.993-5.56.665-7.29-.377s-7.83-4.66-20.38-12.188c-8.69-5.216-17.78-11.642-20.85-13.735s-5.81-3.183-5.91-5.275c-.1-1.993 4.85-4.453 8.11-6.446 3.26-1.993 13.52-9.133 18.41-11.979 4.89-2.856 17.16-11.979 20.04-14.26 2.88-2.28 5.62-1.616 6.84-.962.86.456 8.31 4.67 10.71 6.099 2.4 1.428 18.08 10.769 23.61 14.23 6.15 3.847 10.79 5.464 12.71 7.457 1.92 1.973-.36 3.768-1.7 4.82z"/><g fill="#f5b03e"><path d="M14.156 58.585s21.51-14.94 30.66-21.64c9.11-6.67 24.2-17.11 24.2-17.11l4.45 1.92s-15.17 10.59-26.67 19.17-28.64 20.85-28.64 20.85zM33.206 72.405c1.07-.15 23.14-16.24 33.71-24.06s20.99-15.32 20.99-15.32l3.97 2.33s-21.74 16.52-29.09 21.88-25.59 19-25.59 19zM46.816 80.025c2.45-.46 21.31-14.1 30.04-21s23.43-18.27 23.43-18.27l4.33 2.27s-18.72 14.78-27.76 21.98-29.73 21.15-29.73 21.15z"/><path d="m18.686 44.465-3.99 2.99s9.42 7.76 14.08 11.09 23.4 15.08 27.61 17.3 13.53 7.43 13.53 7.43l4.88-3.49s-22.95-12.02-28.75-15.85c-6.54-4.32-16.97-10.89-19.49-12.92-4.65-3.78-7.87-6.55-7.87-6.55zM40.616 27.755l-4.44 3.1s4.77 4.99 11.86 9.09 25.62 15.75 30.83 18.52 12.42 7.87 12.42 7.87l3.89-3.98s-21.63-12.09-29.17-16.86-14.53-9.53-17.74-11.42c-3.22-1.88-7.65-6.32-7.65-6.32zM51.686 20.295l-3.72 3.38s8.65 6.43 15.19 10.09 20.4 11.75 26.17 15.41 15.41 10.09 15.41 10.09l3.44-3.44s-19.68-12.12-24.06-14.75c-4.99-2.99-17.37-10.46-21.7-13.01-8.3-4.88-10.73-7.77-10.73-7.77zM28.286 34.865l-3.99 2.99s9.42 7.76 14.08 11.09 23.4 15.08 27.61 17.3 13.53 7.43 13.53 7.43l4.88-3.49s-22.95-12.02-28.75-15.85c-6.54-4.32-16.97-10.89-19.49-12.92-4.65-3.78-7.87-6.55-7.87-6.55z"/><path d="M23.436 64.985s21.51-14.94 30.66-21.64c9.11-6.67 24.2-17.11 24.2-17.11l4.45 1.92s-15.17 10.59-26.67 19.17-28.64 20.85-28.64 20.85z"/></g><path fill="#ad5910" d="M-84.5 30.833s-6.93 3.71-7.51 5.66c-.66 2.18 2.53 3.37 4.81 5.08 1.84 1.38 12.93 7.97 14.16 8.7s3.94 1.17 5.41-.22c1.47-1.38 15.38-10.6 16.39-12.63.64-1.29-2.79-2.89-4.5-3.71s-28.76-2.88-28.76-2.88z"/><path fill="#ffe265" d="M-72.49 20.323c-1.86-.2-6.18 3.47-9.07 5.53-2.58 1.83-7.92 5.4-8.42 6.1-1.38 1.92.84 4.04.84 4.04s15.74 8.07 16.26 8c.51-.06 4.25-.51 6.18-2.06 1.93-1.54 10.55-10.94 10.55-10.94s.26-1.35-1.16-2.32c-1.13-.77-5.84-3.59-7.32-4.61s-5.35-3.47-7.86-3.74z"/><path fill="#fcb602" d="M-73.26 42.133s1.09.39 2.32-.32 8.04-5.6 12.74-9.97c.6-.56 1.74-2.06 1.35-2.64s1.54.32 1.54 2.96c0 2.71-1.01 3.68-1.74 4.31-.97.84-13.19 11.45-14.67 11-1.05-.32-2.9-1.74-2.9-1.74z"/><path fill="#ffebc9" d="M-89.79 31.953c-1.31.73-.61 3.29-.26 4.18.58 1.48 5.69 4.04 7.58 5.3 4.79 3.19 9.72 5.97 10.43 6.03s.74-2.79 0-4.76c-.48-1.27-6.1-3.83-9.02-5.59-4.34-2.6-7.89-5.63-8.73-5.16z"/></svg>